<svg width="50" height="50" viewBox="0 0 50 50" fill="none" xmlns="http://www.w3.org/2000/svg">
<rect width="50" height="50" rx="4" fill="#0D6EFD" fill-opacity="0.1"/>
<path fill-rule="evenodd" clip-rule="evenodd" d="M12.5 18.6364C12.5 16.6281 14.099 15 16.0714 15H33.9286C35.901 15 37.5 16.6281 37.5 18.6364V31.3636C37.5 33.3719 35.901 35 33.9286 35H16.0714C14.099 35 12.5 33.3719 12.5 31.3636V18.6364ZM16.0714 16.8182C15.0852 16.8182 14.2857 17.6322 14.2857 18.6364V18.8342L24.5014 25.8352C24.8029 26.0418 25.1971 26.0418 25.4986 25.8352L35.7143 18.8342V18.6364C35.7143 17.6322 34.9148 16.8182 33.9286 16.8182H16.0714ZM35.7143 21.0259L26.4957 27.3436C25.5914 27.9633 24.4086 27.9633 23.5043 27.3436L14.2857 21.0259V31.3636C14.2857 32.3678 15.0852 33.1818 16.0714 33.1818H33.9286C34.9148 33.1818 35.7143 32.3678 35.7143 31.3636V21.0259Z" fill="#0D6EFD"/>
</svg>
