<svg width="50" height="50" viewBox="0 0 50 50" fill="none" xmlns="http://www.w3.org/2000/svg">
<rect width="50" height="50" rx="4" fill="#0D6EFD" fill-opacity="0.1"/>
<path d="M29.0385 18.0724C29.8953 18.0724 30.7171 18.3967 31.323 18.9739C31.9288 19.5511 32.2692 20.3339 32.2692 21.1502M35.5 21.1502C35.5001 22.048 35.2941 22.9349 34.8964 23.7488C34.4987 24.5628 33.9189 25.284 33.1976 25.8619C32.4764 26.4397 31.6312 26.8603 30.7213 27.0942C29.8114 27.328 28.8588 27.3693 27.9303 27.2154C27.324 27.1159 26.6822 27.242 26.2471 27.6565L23.3846 30.3834H20.9615V32.6917H18.5385V35H14.5V32.109C14.5 31.4965 14.7552 30.9087 15.2097 30.4767L22.2086 23.8093C22.6437 23.3949 22.7762 22.7834 22.6717 22.2058C22.519 21.3658 22.5511 20.5047 22.7661 19.6771C22.981 18.8495 23.3741 18.0734 23.9204 17.3981C24.4666 16.7228 25.1542 16.163 25.9395 15.7541C26.7248 15.3452 27.5907 15.0962 28.4824 15.0228C29.374 14.9495 30.2719 15.0533 31.1192 15.3279C31.9665 15.6024 32.7446 16.0416 33.4044 16.6177C34.0641 17.1937 34.5911 17.8941 34.9518 18.6743C35.3126 19.4545 35.4992 20.2976 35.5 21.1502Z" stroke="#0D6EFD" stroke-width="1.5" stroke-linecap="round" stroke-linejoin="round"/>
</svg>
