<svg width="50" height="50" viewBox="0 0 50 50" fill="none" xmlns="http://www.w3.org/2000/svg">
<rect width="50" height="50" rx="4" fill="#0D6EFD" fill-opacity="0.1"/>
<path d="M31.3 23V18C31.3 16.4087 30.6363 14.8826 29.4548 13.7574C28.2733 12.6321 26.6709 12 25 12C23.3291 12 21.7267 12.6321 20.5452 13.7574C19.3637 14.8826 18.7 16.4087 18.7 18V23M17.65 38H32.35C33.1854 38 33.9866 37.6839 34.5774 37.1213C35.1681 36.5587 35.5 35.7957 35.5 35V26C35.5 25.2044 35.1681 24.4413 34.5774 23.8787C33.9866 23.3161 33.1854 23 32.35 23H17.65C16.8146 23 16.0134 23.3161 15.4226 23.8787C14.8319 24.4413 14.5 25.2044 14.5 26V35C14.5 35.7957 14.8319 36.5587 15.4226 37.1213C16.0134 37.6839 16.8146 38 17.65 38Z" stroke="#0D6EFD" stroke-width="1.5" stroke-linecap="round" stroke-linejoin="round"/>
</svg>
